<?xml version="1.0" standalone="no"?>
<!DOCTYPE svg PUBLIC "-//W3C//DTD SVG 1.1//EN" "http://www.w3.org/Graphics/SVG/1.1/DTD/svg11.dtd">
<svg xmlns="http://www.w3.org/2000/svg">
<metadata>Copyright (C) 2020 by original authors @ fontello.com</metadata>
<defs>
<font id="lte-crems" horiz-adv-x="1000" >
<font-face font-family="lte-crems" font-weight="400" font-stretch="normal" units-per-em="1000" ascent="850" descent="-150" />
<missing-glyph horiz-adv-x="1000" />
<glyph glyph-name="phone-call" unicode="&#xe800;" d="M790 231c-20 21-45 32-71 32-26 0-51-11-72-32l-67-67c-5 3-11 6-16 9-8 4-15 7-21 11-62 40-119 91-174 158-26 34-44 62-57 90 18 16 34 32 49 48 6 6 12 12 18 18 44 45 44 102 0 146l-58 58c-6 6-13 13-19 20-13 13-26 27-40 39-20 20-45 31-71 31s-50-11-71-31c-1 0-1 0-1 0l-72-73c-27-27-42-60-45-98-6-61 13-119 27-156 34-93 85-178 161-270 93-110 204-197 331-259 48-23 113-50 186-55 4 0 9 0 13 0 49 0 90 17 122 52 0 1 0 1 0 1 11 14 24 26 37 39 10 8 19 17 28 27 21 22 32 47 32 73 0 26-11 51-33 72l-116 117z m76-223c0 0 0 0 0 0-8-9-17-17-26-26-14-13-27-26-41-42-21-23-46-33-79-33-3 0-6 0-10 0-62 4-121 28-164 49-120 58-225 140-312 244-72 87-120 167-152 253-19 53-27 94-23 133 2 24 11 45 29 62l72 72c10 10 21 15 32 15 13 0 24-8 31-15 0 0 0 0 0 0 13-12 25-25 38-38 7-7 14-13 20-20l58-58c22-22 22-43 0-65-6-7-12-13-18-19-18-18-35-35-53-51-1-1-1-1-1-1-18-18-15-36-11-48 0-1 0-1 0-2 15-36 36-70 69-111l0 0c58-72 119-128 187-171 9-5 18-10 26-14 8-4 15-7 21-11 1-1 2-1 3-2 7-3 14-5 20-5 18 0 29 11 33 15l72 72c7 7 18 16 32 16 13 0 23-9 30-16 0 0 0 0 0 0l117-117c21-21 21-43 0-66z m-326 604c56-9 106-35 146-75s66-91 76-146c2-14 14-24 28-24 1 0 3 1 5 1 15 2 26 17 23 33-11 67-43 128-91 176s-110 80-177 91c-15 3-30-7-33-23s8-30 23-33z m459-203c-19 110-71 210-151 290s-180 132-290 151c-15 2-30-8-33-24-2-15 8-30 24-33 98-16 188-63 259-134 72-71 118-161 135-259 2-14 14-24 28-24 2 0 3 0 5 0 15 3 26 18 23 33z" horiz-adv-x="1000" />

<glyph glyph-name="pie" unicode="&#xe801;" d="M983 311c-7 14-14 28-14 39s7 25 14 39c10 19 20 39 16 60-4 22-23 38-39 51-11 10-23 20-27 30-4 10-3 25-1 40 1 22 3 45-9 63-12 18-34 25-55 32-14 4-29 9-36 17-8 7-13 22-17 36-7 21-14 43-32 55-18 12-41 10-63 9-15-2-30-3-41 1-9 4-19 16-29 27-13 16-29 35-51 39-21 4-41-6-60-16-14-7-28-14-39-14s-25 7-39 14c-19 10-39 20-60 16-22-4-37-23-51-39-10-11-20-23-29-27-10-4-26-3-41-1-9 0-18 1-26 1-8 0-15-7-15-15 0-8 7-15 15-15 7 1 15 0 24-1 18-1 37-3 54 4 16 7 28 21 40 35 11 14 23 27 34 29 11 3 27-5 42-13 17-9 34-17 52-17s36 8 52 17c15 8 31 16 42 13 11-2 23-16 34-29 12-14 24-28 40-35 17-7 36-5 55-4 16 2 34 3 43-3 10-7 15-24 21-40 5-17 11-36 24-48 12-13 31-19 48-24 16-5 33-11 40-21 6-9 5-27 3-43-1-19-3-38 4-55 7-16 21-28 35-40 13-11 27-23 29-34 3-11-5-27-13-42-9-16-17-34-17-52s8-35 17-52c8-15 16-31 13-42-2-10-12-20-24-30l-73 23c7 23 11 47 13 71 0 8-6 15-14 15-8 1-15-5-16-13-1-22-5-43-11-64l-341 106c-5 2-10 0-14-4-4-3-6-9-4-14l106-341c-30-8-61-12-92-12-197 0-357 160-357 357s160 357 357 357c91 0 177-34 243-95 66-61 106-144 113-234 1-8 8-14 16-13 8 0 14 7 14 15-8 97-51 187-123 253-72 67-165 104-263 104-213 0-387-174-387-387s174-387 387-387c34 0 68 5 101 14l23-73c-10-12-20-22-30-24-11-3-27 5-42 13-16 9-34 17-52 17-18 0-35-8-52-17-15-8-31-16-42-13-11 2-23 16-34 29-12 14-24 28-40 35-17 7-36 5-54 4-17-2-35-3-44 3-10 7-15 24-21 40-5 17-11 36-24 48-12 13-31 19-48 24-16 6-33 11-40 21-6 9-5 27-3 44 1 18 3 37-4 54-7 16-21 28-35 40-13 11-27 23-29 34-2 11 5 27 13 42 9 17 18 34 18 52s-9 36-18 52c-8 15-15 31-13 42 2 11 16 23 29 34 14 12 28 24 35 40 7 17 5 36 4 55-2 16-3 34 3 43 7 10 24 16 40 21 17 5 36 11 48 24 13 12 19 31 24 48 3 8 5 16 8 23 4 7 0 16-7 19-8 3-16 0-19-8-4-8-7-16-10-25-4-14-9-29-16-36-8-8-23-13-37-17-21-7-43-14-55-32-12-18-10-41-8-63 1-15 2-30-2-41-4-9-16-19-27-29-16-13-35-29-39-51-4-21 6-41 16-60 7-14 14-28 14-39s-7-25-14-39c-10-19-20-39-16-60 4-22 23-37 39-51 11-10 23-20 27-29 4-10 3-26 2-41-2-22-4-45 8-63 12-18 34-25 55-32 14-4 29-9 37-16 7-8 12-23 16-37 7-21 14-43 32-55 18-12 41-10 63-9 15 2 31 3 41-1 9-4 19-16 29-27 14-16 29-35 51-39 3-1 6-1 10-1 17 0 34 9 50 17 14 7 28 14 39 14s25-7 39-14c19-10 39-20 60-16 22 4 38 23 51 39l1 1c3 4 4 9 3 14l-11 33c27 28 43 52 49 74 8 27 1 52-20 73-31 31-45 71-40 92 3 13 9 25 15 39 9 20 19 43 18 67l280-87c5-1 10 0 14 3l1 1c16 14 35 29 39 51 4 21-6 41-16 60z m-363-83c-6-14-13-29-17-45-8-33 12-83 48-119 17-17 27-41-18-93l-111 357 112-35c6-21-3-42-14-65z m-59 386c-28-12-48-34-55-60s-1-55 18-80c2-4 7-6 11-6 2 0 4 1 6 1 28 13 47 34 55 61 7 27 1 55-18 79-4 6-11 8-17 5z m6-77c-4-14-13-26-27-35-7 15-9 30-5 44s13 27 26 35c8-14 10-29 6-44z m-133-452c2 0 4 0 5 1 28 12 48 34 55 60 7 27 1 55-17 80-4 5-12 7-18 5-28-13-47-34-54-61-8-26-1-55 17-79 3-4 7-6 12-6z m-1 78c4 14 13 26 27 35 7-14 9-30 5-44s-13-27-26-35c-8 14-10 29-6 44z m-29 269c7 1 12 7 13 13 4 31-5 58-25 78-20 19-47 28-77 25-7-1-13-7-13-13-4-31 5-58 25-78h0c17-16 39-25 65-25 4 0 8 0 12 0z m-56 46c-11 10-17 25-18 41 17-1 31-7 41-17 11-10 17-25 17-41-16 1-30 7-40 17z m-51-135c-27-7-48-27-61-55-2-6 0-13 5-17 18-14 38-20 57-20 8 0 15 1 23 3 26 7 48 26 60 54 3 7 1 14-5 18-25 18-53 24-79 17z m16-61c0 0 0 0 0 0-14-4-30-2-44 6 9 13 21 23 35 27 14 3 30 1 44-6-9-14-21-23-35-27z m366 164c-26-7-48-26-60-54-2-6 0-14 5-18 18-13 38-20 57-20 8 0 15 1 23 3 26 7 48 27 60 55 3 6 1 14-5 18-25 18-53 24-80 16z m17-60c-14-4-30-2-44 5 9 14 21 23 35 27 14 4 30 2 44-5-9-14-21-24-35-27z" horiz-adv-x="1000" />

<glyph glyph-name="strawberry" unicode="&#xe802;" d="M896 524c-15 8-33 10-50 12-16 2-33 4-40 10 3 3 10 8 15 11 18 12 47 32 33 63-13 29-51 24-84 20-20-3-45-6-53 1-7 8-3 34-1 53 5 33 10 70-20 84-30 13-50-16-62-33-4-5-9-12-12-16-6 7-8 25-10 40-2 18-4 36-11 51-10 20-27 30-49 30-18 0-34-10-44-29-12-23-16-56-9-94 3-20 9-39 16-59-19 14-39 27-59 35-67 30-129 14-190-46-10-10-20-22-30-34-13 0-24-5-34-15-81-81-124-211-128-386-1-8 6-15 14-15 8 0 15 6 15 14 4 168 44 291 120 367 6 5 12 7 21 5 41-9 102-92 131-176 19-55 53-108 101-155 45-44 98-78 149-95 18-7 29-14 32-23 6-14-6-37-18-58-12-22-24-44-24-66 0-57-14-102-32-102-5 0-9 14-12 25-7 21-16 53-50 53-32 0-44-35-53-66-10-30-18-51-31-51-12 0-19 16-30 41-13 31-30 73-77 73-32 0-85 9-131 34-56 31-87 77-95 138-1 8-8 13-16 13-8-1-14-9-13-17 8-69 46-124 110-160 51-28 108-38 145-38 26 0 36-20 50-55 12-27 25-58 57-58 36 0 48 39 59 71 6 21 14 46 25 46 10 0 14-8 22-33 6-19 14-45 40-45 45 0 61 68 61 131 0 14 11 33 21 52 14 25 28 52 21 78 18 13 33 26 47 39 52 53 71 106 56 163-2 7-10 12-17 10-8-2-13-10-11-18 12-46-4-89-49-134-12-12-26-24-41-36-9 8-21 15-37 20-100 35-197 133-231 232-26 76-82 163-135 189 6 8 12 15 19 21 52 53 101 65 158 40 55-24 113-82 169-138 46-45 97-96 125-144 3-5 8-7 13-7 2 0 5 1 7 2 7 4 10 13 5 20-6 10-12 20-20 30 20-8 40-13 59-17 13-2 25-3 37-3 23 0 42 4 58 13 18 10 28 25 28 44 0 22-10 39-30 48z m-12-67c-34-18-111-10-189 40-20 21-40 42-60 62-20 20-41 41-61 60-57 87-55 161-40 188 5 9 11 14 18 14 21 0 26-14 31-55 3-23 6-45 19-58 8-8 16-9 22-9 15 2 24 15 34 29 14 21 20 26 26 23 10-4 6-31 3-53-4-29-8-60 10-78 17-17 48-13 77-9 22 3 49 6 53-3 3-7-2-12-22-27-15-9-28-19-29-34-1-5 0-13 8-21 14-14 35-16 58-19 41-5 55-10 55-31 0-8-4-14-13-19z m-219-124l-22-22c-6-6-6-15 0-21 3-3 6-4 10-4s8 1 10 4l23 23c5 5 5 15 0 20-6 6-15 6-21 0z m-92 92l-22-22c-6-6-6-15 0-21 3-3 6-4 10-4s8 1 10 4l23 23c5 5 5 15 0 20-6 6-15 6-21 0z m-92 92l-22-22c-6-6-6-15 0-21 3-3 6-4 10-4s8 1 10 4l23 23c5 5 5 15 0 20-6 6-15 6-21 0z m-92 92l-22-22c-6-6-6-15 0-21 2-3 6-4 10-4s7 1 10 4l23 23c5 5 5 15 0 20-6 6-15 6-21 0z" horiz-adv-x="1000" />

<glyph glyph-name="badge" unicode="&#xe803;" d="M884 439c19 31 16 70-9 97-11 11-16 27-13 43 8 35-10 71-43 86-14 7-24 20-27 36-6 36-35 63-71 65-16 1-30 10-38 24-19 31-56 46-90 35-16-5-32-2-45 8-28 23-68 23-96 0-13-10-29-13-45-8-34 11-71-4-89-35-9-14-23-23-39-24-36-2-65-29-71-65-3-16-13-29-27-36-33-15-51-51-43-86 3-16-2-32-13-43-25-27-28-66-9-97 9-13 11-30 5-44-14-34-3-72 26-93 13-10 20-25 20-41-1-36 23-68 58-77 11-2 20-8 26-16l-81-195c-11-28 15-56 43-47l88 27c3 1 6 0 7-3l43-81c14-27 52-25 63 3l84 203c1 0 3 0 4 0l84-203c11-28 49-30 63-3l43 81c2 3 4 4 7 3l88-27c28-9 54 19 43 47l-81 195c7 8 16 14 26 16 35 9 59 41 58 77 0 16 7 31 20 41 30 21 40 59 27 93-7 14-5 31 4 44z m-497-556c-2-5-8-5-10-1l-43 82c-8 15-25 22-41 17l-89-27c-4-2-8 3-7 7l72 173c16-22 43-34 72-31 15 2 31-4 42-16 15-18 36-27 58-27 7 0 14 1 21 3z m409 71l-89 27c-15 5-33-2-41-17l-43-82c-2-4-8-4-10 1l-75 180c29-8 59 1 79 24 11 12 27 18 43 16 28-3 55 9 71 31l72-173c2-4-3-9-7-7z m63 501c-14-21-16-48-7-72 9-21 2-44-16-57-21-15-33-40-32-65 0-23-15-43-36-48-21-6-38-19-48-37 0 0 0 0 0 0-3-4-5-8-6-12-8-21-29-34-51-32-26 3-51-7-68-26-14-17-39-21-59-11-6 4-14 6-21 8 0 0 0 0 0 0-10 2-20 1-30 0 0 0 0 0 0 0-7-2-14-4-21-8-20-10-44-6-59 11-15 17-36 27-59 27-3 0-6 0-9-1-22-2-43 11-51 32-1 4-3 8-5 12 0 0-1 0-1 0-10 18-27 31-47 37-22 5-37 25-37 48 1 25-11 50-32 65-18 13-25 36-16 57 9 24 7 51-7 72-12 19-10 44 5 60 18 19 26 45 20 70-4 22 7 44 27 54 23 11 40 32 44 58 3 22 22 38 44 40 26 2 49 16 62 38 11 20 34 29 56 22 24-8 51-3 71 13 18 14 42 14 60 0 20-16 47-21 71-13 22 7 45-2 56-22 13-22 36-36 62-38 22-2 41-18 44-40 4-26 21-47 44-58 20-10 31-32 27-54-6-25 2-51 20-70 15-16 17-41 5-60z m-636 20c8-1 15 5 16 13 16 131 128 230 261 230 133 0 245-99 261-231 1-7 7-12 15-12 0 0 1 0 1 0 9 1 14 8 13 16-18 146-142 256-290 256-147 0-272-110-290-256-1-8 5-15 13-16z m555-40c-9 1-16-4-17-12-16-132-128-231-261-231-133 0-245 99-261 231-1 8-8 13-16 12-8-1-14-8-13-16 18-146 143-256 290-256 148 0 272 110 290 256 1 8-4 15-12 16z m-71 81c-4 11-14 19-26 19l-115 4-39 108c-4 11-15 19-27 19s-22-8-27-19l-39-108-115-4c-12 0-22-8-26-19s0-24 10-32l90-70-31-111c-4-11 0-24 10-31 10-7 23-7 33 0l95 64 95-64c10-7 23-7 33 0 10 7 14 20 10 31l-31 111 90 70c10 8 14 20 10 32z m-119-80c-9-7-13-19-9-30l31-108-94 63c-5 3-10 4-16 4s-11-1-16-4l-93-63 31 108c3 11-1 23-10 30l-89 70 113 4c11 0 21 8 25 19l39 106 39-106c4-11 14-19 25-19l113-4z" horiz-adv-x="1000" />

<glyph glyph-name="food" unicode="&#xe804;" d="M483 92c-8 0-15-7-15-15v-28c0-8 7-14 15-14s15 6 15 14v28c0 8-7 15-15 15z m292-57c9 0 15 6 15 14v28c0 8-6 15-15 15s-14-7-14-15v-28c0-8 6-14 14-14z m-146-17c19 0 37 8 50 23 5 6 5 15-2 20-6 5-15 5-20-1-7-8-17-13-28-13s-20 5-27 13c-6 6-15 6-21 1-6-5-7-14-1-20 12-15 30-23 49-23z m-249 441h118c20 0 36 16 36 36v22c0 20-16 36-36 36h-118c-20 0-36-16-36-36v-22c0-20 16-36 36-36z m-7 58c0 4 3 7 7 7h118c4 0 7-3 7-7v-22c0-4-3-7-7-7h-118c-4 0-7 3-7 7z m504 85c13 23 6 52-16 65l-64 38c-22 14-51 7-65-16-14-22-6-51 16-65l64-38c22-14 51-6 65 16z m-120 72c5 9 16 12 25 6l63-38c9-5 12-16 7-25-6-8-17-11-25-6l-64 38c-8 5-11 17-6 25z m-40-102c-23 14-52 7-65-16-14-22-7-52 16-65l63-38c23-14 52-7 65 16 14 22 7 52-16 65z m54-88c-5-9-16-11-25-6l-63 38c-9 5-11 16-6 25 5 9 16 11 25 6l63-38c9-5 11-16 6-25z m212 238c0 8-8 14-16 13-8-1-14-8-13-16 3-25-3-49-15-70l-136-225h-196v113l138 229c32 53 102 71 155 39 15-10 28-22 38-37 4-7 13-9 20-5 7 4 9 13 4 20-11 19-27 35-47 47-67 40-155 18-195-49l-116-191c-6 19-25 34-47 34h-349c-28 0-51-23-51-50v-150h-44c-5 0-11-4-13-9l-80-172c-13-28 8-61 40-61h39v-100c0-8 6-15 14-15s15 7 15 15v100h110c29 0 55 16 67 42l55 119v-464h-177c-30 0-55 25-55 56v88c0 8-7 15-15 15s-14-7-14-15v-88c0-47 38-85 84-85h631c46 0 84 38 84 85v247h39c32 0 53 33 40 61l-80 172c-3 5-8 9-13 9h-47l127 210c16 27 22 57 19 88z m-405-148v-150h-278v171h257c11 0 21-10 21-21z m-391 0c0 11 9 21 21 21h63v-171h-84z m51-363h-178c-11 0-18 11-13 20l76 163h229l-73-157c-8-16-24-26-41-26z m631-276c0-31-25-56-55-56h-424v464l55-119c12-26 38-42 67-42h357v-247z m81 296c5-9-2-20-13-20h-425c-17 0-33 10-41 26l-73 157h476z" horiz-adv-x="1000" />

<glyph glyph-name="quote_soft" unicode="&#xe805;" d="M621 725c-54 58-121 83-200 83-42 0-79-8-113-20-37-17-70-38-95-63-25-25-46-58-63-92-12-37-21-75-21-116 0-67 21-121 59-167 37-46 87-83 141-112 25-13 42-30 54-55 13-25 17-50 13-83 0-29-8-62-17-96-8-33-21-62-33-92 0-4 4-8 17-12 8-4 12-8 16-8 17 12 42 33 79 66 38 34 75 80 117 134 38 54 71 116 100 191 29 75 38 150 33 234-4 83-33 150-87 208z m742-208c-5 83-34 150-88 208-54 58-121 83-200 83-42 0-79-8-112-20-38-17-67-34-92-63-25-25-46-58-63-92-16-37-25-75-25-116 0-67 21-121 59-167 37-46 87-83 141-112 30-17 46-34 59-59 12-25 16-50 12-83 0-29-8-63-16-96-9-33-21-63-34-92 0-4 4-8 17-12 4-4 8-9 17-9 16 13 41 34 79 67 37 33 75 79 116 134 38 54 71 116 100 191 25 79 38 154 30 238z" horiz-adv-x="1500" />

<glyph glyph-name="wheat" unicode="&#xe806;" d="M454 655c-8 0-14-7-14-15v-28c-91-2-155-20-191-54v121c0 8-6 15-14 15s-15-7-15-15v-121c-16 15-41 30-79 40-8 2-16-2-18-10-2-8 2-16 10-18 75-20 86-58 87-72l0-151c-26 25-68 42-124 49-44 38-67 100-67 183v4c14 0 27-1 39-2 8-1 15 5 16 13s-6 15-14 16c-13 1-26 2-41 2v28c0 8-6 15-14 15s-15-7-15-15v-61c0-75 17-135 51-178-11 0-24 1-36 1-8 0-15-7-15-15v-19c0-75 17-135 51-178-11 0-24 1-36 1-8 0-15-7-15-15v-18c0-92 25-160 75-203 50-45 111-51 142-51 1 0 2 0 3 0v-39c0-8 6-15 15-15s14 7 14 15v39c1 0 2 0 3 0 25 0 69 4 111 28 7 4 10 13 6 20s-13 10-20 6c-39-22-80-25-100-24l0 143c1 7 4 20 17 34 20 22 66 48 174 50v-3c0-67-14-119-42-157-5-6-4-16 3-20 2-2 5-3 9-3 4 0 8 2 11 6 32 42 48 101 48 174v18c0 8-6 15-15 15-12 0-25-1-36-1 34 43 51 103 51 178v19c0 8-6 15-15 15-12 0-25-1-36-1 34 43 51 103 51 178v61c0 8-6 15-15 15z m-360-678c-43 37-65 98-65 181v3c108-2 154-28 174-50 13-14 16-27 17-34l0-143c-25-1-81 3-126 43z m2 209c-44 37-67 99-67 182v4c108-2 154-28 174-50 13-14 16-28 17-34l0-152c-26 25-68 42-124 50z m344 186v-4c0-83-23-145-67-182-56-8-97-25-124-50l0 152c1 6 4 19 16 33 20 22 66 49 175 51z m0 207c0-83-23-145-67-183-56-7-97-24-124-49l0 151c1 7 4 20 17 35 20 22 66 48 174 50z m560 217c0 8-7 15-15 15s-14-7-14-15v-27c-91-2-155-21-191-55v121c0 8-6 15-14 15s-15-7-15-15v-121c-36 34-100 53-191 55v27c0 8-6 15-14 15s-15-7-15-15v-60c0-76 17-136 51-179-11 0-24 1-36 1-8 0-15-7-15-15v-18c0-76 17-136 51-179-11 1-24 1-36 1-8 0-15-7-15-15v-18c0-91 25-160 74-203 50-44 112-50 143-50 1 0 2 0 3 0v-196c0-8 6-15 15-15s14 7 14 15v196c1 0 2 0 3 0 18 0 46 2 77 12 8 3 12 11 9 19s-11 12-19 9c-28-10-55-11-70-11l0 143c1 7 4 20 17 34 20 22 66 48 174 50v-3c0-82-22-143-64-180-6-6-7-15-1-21 3-3 7-5 11-5 3 0 7 1 10 4 48 43 73 111 73 202v18c0 8-7 15-15 15-12 0-25 0-36-1 34 43 51 103 51 179v18c0 8-7 15-15 15-12 0-25-1-36-1 34 43 51 103 51 179z m-375-663c-43 38-65 99-65 181v3c108-2 154-28 174-50 13-14 16-27 17-34l0-143c-25 0-82 4-126 43z m81 366c37-20 44-45 45-55l0-152c-26 25-68 42-124 50-44 37-67 99-67 183v3c31 0 59-3 83-8 8-1 16 4 17 12 2 8-3 16-11 17-7 1-14 3-22 4-44 37-67 99-67 183v3c108-2 154-28 174-50 13-14 16-27 17-34l0-152c-8 8-18 15-31 22-7 4-16 1-20-6s-1-16 6-20z m265 29v-3c0-84-23-146-67-183-56-8-98-25-124-50l0 152c1 6 4 19 16 33 20 23 66 49 175 51z m0 208c0-84-23-146-67-183-56-8-98-25-124-50l0 152c1 7 4 20 17 34 20 22 66 48 174 50z" horiz-adv-x="1000" />

<glyph glyph-name="filter" unicode="&#xe80b;" d="M125 600h458c0-46 38-83 84-83h83c46 0 83 37 83 83h42c23 0 42 19 42 42s-19 41-42 41h-42c0 46-37 84-83 84h-83c-46 0-84-38-84-84h-458c-23 0-42-18-42-41s19-42 42-42z m542 83h83v-41-42h-83v83z m208-291h-375c0 46-37 83-83 83h-84c-46 0-83-37-83-83h-125c-23 0-42-19-42-42 0-23 19-42 42-42h125c0-46 37-83 83-83h84c46 0 83 37 83 83h375c23 0 42 19 42 42 0 23-19 42-42 42z m-542-84v84h84v-42-42h-84z m542-208h-125c0 46-37 83-83 83h-84c-46 0-83-37-83-83h-375c-23 0-42-19-42-42s19-41 42-41h375c0-46 37-84 83-84h84c46 0 83 38 83 84h125c23 0 42 19 42 41s-19 42-42 42z m-292-83v83h84v-42-41h-84z" horiz-adv-x="1000" />

<glyph glyph-name="layers" unicode="&#xe80d;" d="M1000 350c0 21-12 40-31 50l-74 37 74 37c0 0 0 0 0 0 19 10 31 29 31 50 0 21-12 40-31 49l-420 210c-31 16-67 16-98 0l-420-210c-19-9-31-28-31-49 0-21 12-40 31-50l74-37-74-37c-19-10-31-29-31-50s12-40 31-50l74-37-74-37c-19-9-31-28-31-50 0-21 12-40 31-49l420-210c15-8 32-12 49-12 17 0 34 4 49 12l420 210c19 9 31 28 31 49 0 22-12 41-31 50l-74 37 74 37c19 10 31 29 31 50z m-949 165c-4 3-5 7-5 9s1 6 5 8l421 210c9 5 18 7 28 7 10 0 20-2 29-7l420-210c4-2 5-6 5-8s-1-6-5-9l-420-210c-18-9-40-9-57 0l-421 210z m898-330c4-2 5-6 5-9 0-2-1-6-5-8l-420-210c-18-9-40-9-57 0l-421 210c-4 2-5 6-5 8 0 3 1 7 5 9l106 53 294-148c15-7 32-11 49-11 17 0 34 4 49 11l295 148 105-53z m0 157l-420-211c-18-9-40-9-57 0l-421 211c-4 2-5 6-5 8 0 2 1 6 5 9l106 52 294-147c15-8 32-12 49-12 17 0 34 4 49 12l295 147 105-52c4-3 5-7 5-9 0-2-1-6-5-8z" horiz-adv-x="1000" />

<glyph glyph-name="responsive" unicode="&#xe80e;" d="M932 759h-773c-38 0-68-29-68-68v-227c0-14 9-23 23-23s22 9 22 23v227c0 14 10 23 23 23h773c14 0 23-9 23-23v-545c0-14-9-23-23-23h-546c-13 0-22-9-22-23s9-23 22-23h46v-68c0-14-9-23-23-23h-23c-13 0-22-9-22-22s9-23 22-23h319c13 0 22 9 22 23s-9 22-22 22h-23c-14 0-23 9-23 23v68h273c39 0 68 30 68 69v545c0 39-29 68-68 68z m-459-773c2 7 4 14 4 23v68h137v-68c0-9 2-16 4-23h-145z m413 273h-500c-13 0-22-9-22-23s9-22 22-22h500c14 0 23 9 23 22s-9 23-23 23z m-636 137h-182c-38 0-68-30-68-69v-318c0-39 30-68 68-68h182c39 0 68 29 68 68v318c0 39-29 69-68 69z m23-387c0-14-9-23-23-23h-182c-13 0-22 9-22 23v318c0 14 9 23 22 23h182c14 0 23-9 23-23v-318z" horiz-adv-x="1000" />

<glyph glyph-name="settings" unicode="&#xe80f;" d="M642 130c-10 6-21 13-32 19 3 21 3 43 0 65 11 6 22 12 32 19 18 10 25 33 17 52 0 0 0 0 0 0l-23 55c-7 19-28 30-48 25-12-3-24-6-36-9-14 17-29 32-46 46 3 12 6 24 9 36 5 20-6 41-25 48l-55 23c-19 8-42 1-52-17-7-10-13-21-19-32-22 3-44 3-65 0-6 11-13 22-19 32-11 18-33 25-52 17l-56-23c-19-7-29-28-24-48 3-12 6-24 9-36-17-14-32-29-46-46-12 3-24 6-36 9-20 5-41-6-49-25l-23-55c-8-19 0-42 17-52 11-7 22-13 32-19-2-22-2-44 0-65-10-6-21-13-32-19-17-11-25-33-17-52l23-56c8-19 29-29 49-24 12 3 24 6 36 9 14-17 29-33 46-46-3-12-6-24-9-36-5-20 5-41 24-49l56-23c5-2 10-3 16-3 14 0 28 7 36 20 6 11 12 21 19 32 21-2 43-2 65 0 6-11 12-21 19-32 10-17 33-25 52-17l55 23c19 8 30 29 25 49-3 12-6 24-9 36 17 13 32 29 46 46 12-3 24-6 36-9 20-5 41 5 48 24l23 56c8 19 1 41-17 52z m-46-88c-11 3-23 6-35 9-16 4-33-2-44-15-11-15-25-29-41-41-13-10-19-28-14-44 3-12 6-23 9-34l-51-22c-6 11-12 21-18 31-9 15-25 23-42 21-19-2-38-2-58 0-16 2-33-6-41-21-6-10-12-21-18-31l-51 22c3 11 6 23 9 34 4 16-2 34-15 44-15 12-29 26-41 41-10 13-27 19-44 15-11-3-23-6-34-9l-22 51c11 6 21 12 31 18 15 8 23 25 21 41-2 20-2 39 0 58 2 17-6 33-21 42-10 6-20 12-31 18l22 51c11-3 23-6 34-9 17-5 34 1 44 14 12 16 26 30 41 41 13 11 19 28 15 44-3 12-6 24-9 35l51 21c6-10 12-20 18-31 8-14 25-23 41-20 20 2 39 2 58 0 17-3 33 6 42 20 6 11 12 21 18 31l51-21c-3-11-6-23-9-35-5-16 1-33 14-44 16-11 30-25 41-41 11-13 28-19 44-14 12 3 24 6 35 9l21-51c-10-6-20-12-31-18-14-9-23-25-20-42 2-19 2-38 0-58-3-16 6-33 20-41 11-6 21-12 31-18l-21-51z m-124 198c0 0 0 0 0 0-32 77-121 114-199 82-78-32-115-121-83-199 16-38 45-67 83-83 19-7 39-11 58-11s40 4 59 11c77 33 114 122 82 200z m-99-158c-27-11-56-11-83 0-27 11-47 31-58 58-23 55 3 118 58 141 14 5 27 8 41 8 42 0 83-25 100-66 23-55-4-119-58-141z m597 571c-8 1-16 2-24 3-4 14-9 27-16 39 5 6 10 13 15 19 10 14 8 34-4 46l-31 31c-12 12-32 14-46 4-6-5-13-10-19-15-12 7-25 12-39 16-1 8-2 16-3 24-3 17-18 30-35 30h-44c-17 0-32-13-35-30-1-8-2-16-3-24-14-4-27-9-39-16-6 5-13 10-19 15-14 10-34 8-46-4l-31-31c-12-12-14-32-4-46 5-6 10-13 15-19-7-12-12-25-16-39-8-1-16-2-24-3-17-3-30-18-30-35v-44c0-17 13-32 30-35 8-1 16-2 24-3 4-14 9-27 16-39-5-6-10-13-15-19-10-14-8-34 4-46l31-31c12-12 32-14 46-4 6 5 13 10 19 15 12-7 25-12 39-16 1-8 2-16 3-24 3-17 18-30 35-30h44c17 0 32 13 35 30 1 8 2 16 3 24 14 4 27 9 39 16 6-5 13-10 19-15 14-10 34-8 46 4l31 31c12 12 14 32 4 46-5 6-10 13-15 19 7 12 12 25 16 39 8 1 16 2 24 3 17 3 30 18 30 35v44c0 17-13 32-30 35z m-12-73c-7-1-15-2-22-3-14-2-26-12-29-25-4-14-9-26-16-38-7-13-6-28 3-39 4-6 8-12 13-17l-23-23c-5 5-11 9-17 13-11 9-26 10-39 3-12-7-24-12-38-16-13-3-23-15-25-29-1-7-2-15-3-22h-32c-1 7-2 15-3 22-2 14-12 26-25 29-14 4-26 9-38 16-13 7-28 6-39-3-6-4-12-8-17-13l-23 23c5 5 9 11 13 17 9 11 10 26 3 39-7 12-12 24-16 38-3 13-15 23-29 25-7 1-15 2-22 3v32c7 1 15 2 22 3 14 2 26 12 29 25 4 14 9 26 16 38 7 13 6 28-3 39-4 6-8 12-13 17l23 23c5-5 11-9 17-13 11-9 26-10 39-3 12 7 24 12 38 16 13 3 23 15 25 29 1 7 2 15 3 22h32c1-7 2-15 3-22 2-14 12-26 25-29 14-4 26-9 38-16 13-7 28-6 39 3 6 4 12 8 17 13l23-23c-5-5-9-11-13-17-9-11-10-26-3-39 7-12 12-24 16-38 3-13 15-23 29-25 7-1 15-2 22-3v-32z m-212 107c-50 0-91-41-91-91 0-50 41-91 91-91s91 41 91 91c0 50-41 91-91 91z m0-141c-28 0-50 22-50 50 0 28 22 50 50 50 28 0 50-22 50-50 0-28-22-50-50-50z" horiz-adv-x="1000" />

<glyph glyph-name="favorites" unicode="&#xe812;" d="M922 456c18 18 25 44 17 68-8 24-28 41-53 45l-219 31c-4 1-8 4-10 8l-98 198c-11 23-34 37-59 37-25 0-48-14-59-37l-98-198c-2-4-6-7-10-8l-219-31c-25-4-45-21-53-45-8-24-1-50 17-68l158-154c3-3 5-8 4-12l-37-218c-5-25 5-49 26-64 20-15 47-17 69-5l196 103c4 2 8 2 12 0l196-103c10-6 20-8 31-8 13 0 27 4 38 13 21 15 31 39 27 64l-38 218c-1 4 1 9 4 12l158 154z m-214-175l38-218c1-7-4-11-6-13-2-1-7-4-14-1l-195 103c-10 5-20 8-31 8-10 0-21-3-31-8l-195-103c-7-3-12 0-14 1-2 2-7 6-5 13l37 218c4 22-4 43-19 59l-158 154c-6 5-4 11-4 13 1 3 4 8 11 9l219 32c21 3 40 17 49 36l98 198c4 7 10 8 12 8 3 0 9-1 12-8v0l98-198c9-19 28-33 49-36l219-32c8-1 10-6 11-9 1-2 2-8-3-13l-159-154c-15-16-22-37-19-59z m100 525c-12 8-28 6-37-6l-28-39c-8-11-6-28 6-36 5-4 10-5 16-5 8 0 16 3 21 10l28 39c9 12 6 28-6 37z m-551-44l-28 38c-9 12-25 15-37 6-12-9-15-25-6-37l28-38c5-7 13-11 21-11 6 0 11 1 16 5 12 8 14 25 6 37z m-160-511c-5 14-20 21-33 17l-46-15c-14-5-21-19-17-33 4-11 14-18 25-18 3 0 6 0 9 1l45 15c14 4 21 19 17 33z m403-293c-15 0-26-12-26-27v-47c0-15 11-27 26-27 15 0 26 12 26 27v47c0 15-11 27-26 27z m482 295l-45 15c-14 4-29-3-34-17-4-14 3-29 17-34l46-14c2-1 5-2 8-2 11 0 21 8 25 19 4 14-3 28-17 33z" horiz-adv-x="1000" />

<glyph glyph-name="exchange" unicode="&#xe813;" d="M854 704c-95 94-220 146-354 146s-259-52-354-146c-94-95-146-220-146-354s52-259 146-354c95-94 220-146 354-146s259 52 354 146c94 95 146 220 146 354s-52 259-146 354z m-42-666c-83-84-194-129-312-129s-229 45-312 129c-83 83-129 194-129 312s46 229 129 312c83 84 194 129 312 129s229-45 312-129c84-83 129-194 129-312s-45-229-129-312z m-357 644c-73-10-139-43-192-95-87-88-118-216-84-331l-49 21-23-53 142-64 63 143-53 24-24-54c-28 95-2 200 70 272 43 43 98 70 158 79 59 7 119-4 170-32l29 51c-63 34-136 48-207 39z m438-206l-142 64-63-143 53-23 24 53c28-95 2-200-70-272-43-43-98-70-158-78-58-8-119 3-170 31l-28-51c49-27 105-41 162-41 14 0 29 1 44 2 73 10 139 43 192 95 87 88 118 216 84 331l49-21 23 53z" horiz-adv-x="1000" />

<glyph glyph-name="font" unicode="&#xe814;" d="M880 445v-27c-29 24-67 38-108 38-96 0-174-78-174-174s78-174 174-174c41 0 79 15 108 39v-28h66v326h-66z m-108-271c-60 0-109 48-109 108 0 60 49 109 109 109s108-49 108-109c0-60-48-108-108-108z m-446 548l-265-603h71l91 207h206l91-207h71l-265 603z m-74-331l74 169 75-169h-149z" horiz-adv-x="1000" />

<glyph glyph-name="gear" unicode="&#xe815;" d="M601-150h-202l-27 91c-24 8-48 18-71 30l-83-46-143 143 46 83c-12 23-22 47-30 71l-91 27v202l91 27c8 24 18 48 30 71l-46 83 143 143 83-46c23 12 47 22 71 30l27 91h202l27-91c24-8 48-18 71-30l83 46 143-143-46-83c12-23 22-47 30-71l91-27v-202l-91-27c-8-24-18-48-30-71l46-83-143-143-83 46c-23-12-47-22-71-30z m-158 59h114l24 80 15 4c31 8 61 21 88 36l15 9 73-41 81 81-41 74 9 14c16 27 28 57 36 88l4 16 80 23v114l-80 24-4 15c-8 31-20 61-36 88l-9 15 41 73-81 81-73-41-15 9c-27 16-57 28-88 36l-15 4-24 80h-114l-23-80-16-4c-31-8-61-20-88-36l-14-9-74 41-81-81 41-73-9-15c-15-27-28-57-36-88l-4-15-80-24v-114l80-23 4-16c8-31 21-61 36-88l9-14-41-74 81-81 74 41 14-9c27-15 57-28 88-36l16-4z m0 0m57 304c-76 0-137 61-137 137s61 137 137 137 137-61 137-137-61-137-137-137z m0 216c-43 0-78-36-78-79s35-78 78-78 79 35 79 78-36 79-79 79z m0 0m0-333c-140 0-254 114-254 254s114 254 254 254 254-114 254-254-114-254-254-254z m0 450c-108 0-196-88-196-196s88-196 196-196 196 88 196 196-88 196-196 196z m0 0" horiz-adv-x="1000" />

<glyph glyph-name="homepages" unicode="&#xe816;" d="M844 663h-438c-17 0-31-15-31-32v-93h-94c-17 0-31-15-31-32v-93h-94c-17 0-31-15-31-32v-312c0-17 14-31 31-31h438c17 0 31 14 31 31v94h94c17 0 31 14 31 31v94h94c17 0 31 14 31 31v312c0 17-14 32-31 32z m-281-563h-375v250h375v-250z m125 125h-63v156c0 17-14 32-31 32h-281v62h375v-250z m125 125h-63v156c0 17-14 32-31 32h-281v62h375v-250z m-500-125h-32c-17 0-31-14-31-31s14-31 31-31h32c17 0 31 14 31 31s-14 31-31 31z" horiz-adv-x="1000" />

<glyph glyph-name="parallax" unicode="&#xe817;" d="M625 538h-562c-35 0-63-28-63-63v-563c0-34 28-62 63-62h562c35 0 63 28 63 62v563c0 35-28 63-63 63z m0-626h-562v563h562v-563z m313 938h-563c-34 0-62-28-62-62v-157h62v157h563v-563h-157v-62h157c34 0 62 28 62 62v563c0 34-28 62-62 62z" horiz-adv-x="1000" />

<glyph glyph-name="seo" unicode="&#xe818;" d="M927 611l48 48c8 8 11 20 7 31-4 11-14 18-25 19l-90 8-8 90c-1 11-8 21-19 25-11 4-23 1-31-7l-48-48c-79 48-168 73-261 73-134 0-259-52-354-146-94-95-146-220-146-354s52-259 146-354c95-94 220-146 354-146s259 52 354 146c94 95 146 220 146 354 0 93-25 182-73 261z m-116 76c1-14 12-25 26-26l52-5-70-70-76 7-7 76 70 70z m-211-337c0-55-45-100-100-100s-100 45-100 100 45 100 100 100c17 0 33-5 47-12l-68-67c-11-12-11-30 0-42 6-5 14-8 21-8s15 3 21 8l67 68c7-14 12-30 12-47z m-11 131c-25 17-56 27-89 27-87 0-158-71-158-158s71-158 158-158 158 71 158 158c0 33-10 64-27 89l83 84c39-47 61-108 61-173 0-152-123-275-275-275s-275 123-275 275 123 275 275 275c65 0 126-22 173-61z m223-443c-83-84-194-129-312-129s-229 45-312 129c-83 83-129 194-129 312s46 229 129 312c83 84 194 129 312 129 77 0 152-19 218-57l-33-33c-5-5-8-13-8-20 0-1 0-2 0-3l4-47c-53 34-114 53-181 53-184 0-334-150-334-334s150-334 334-334 334 150 334 334c0 67-19 128-53 181l47-4c0 0 1 0 2 0 0 0 0 0 1 0 0 0 0 0 1 0 0 0 1 0 2 0 0 0 0 0 1 0 0 0 1 0 2 0 0 0 0 0 1 1 0 0 1 0 2 0 0 0 0 0 1 1 0 0 1 0 1 0 1 0 1 1 1 1 1 0 2 0 2 1 0 0 1 0 1 0 1 1 1 1 2 1 0 1 0 1 1 1 0 1 1 1 2 2l33 33c38-66 57-141 57-218 0-118-45-229-129-312z m0 0" horiz-adv-x="1000" />

<glyph glyph-name="text" unicode="&#xe819;" d="M620 500v61c0 16-14 29-30 29h-297c-17 0-30-13-30-29v-61c0-16 13-30 30-30s29 14 29 30v31h90v-245h-20c-17 0-30-13-30-29s13-29 30-29h99c16 0 30 13 30 29s-14 29-30 29h-20v245h90v-31c0-16 13-30 29-30s30 14 30 30z m368-506l-116 115 67 66c16 17 7 46-17 50l-120 19v389c46 13 81 56 81 107 0 61-50 110-110 110-51 0-94-34-107-81h-449c-13 47-56 81-107 81-60 0-110-49-110-110 0-51 34-94 81-107v-449c-47-13-81-56-81-106 0-61 50-111 110-111 51 0 94 35 107 81h389l19-120c4-24 33-34 50-17l66 67 115-116c12-11 30-11 42 0l90 90c11 12 11 30 0 42z m-215 797c28 0 51-23 51-51s-23-52-51-52-52 23-52 52 23 51 52 51z m-714-51c0 28 23 51 51 51s52-23 52-51-23-52-52-52-51 23-51 52z m51-714c-28 0-51 23-51 52s23 51 51 51 52-23 52-51-23-52-52-52z m107 81c-11 37-40 67-77 77v449c37 11 66 40 77 77h449c10-37 40-66 77-77v-380l-133 21c-20 3-37-14-33-34l20-133z m660-182l-115 115c-12 11-30 11-42 0l-46-46-33 215 215-33-46-46c-11-12-11-30 0-42l115-115z" horiz-adv-x="1000" />

<glyph glyph-name="coding" unicode="&#xe81a;" d="M971 145h-30v498c0 48-39 88-87 88h-707c-49 0-88-40-88-88v-498h-30c-16 0-29-13-29-29 0-81 66-147 147-147h707c80 0 146 66 146 147 0 16-13 29-29 29z m-854 498c0 16 13 29 30 29h707c16 0 29-13 29-29v-498h-766v498z m737-615h-707c-39 0-71 24-83 58h873c-13-34-45-58-83-58z m-511 519c-12 11-30 11-41 0l-118-118c-11-11-11-30 0-41l118-117c11-12 30-12 41 0 12 11 12 30 0 41l-96 97 96 96c12 11 12 30 0 42z m355 0c-11 11-30 11-41 0-11-12-11-31 0-42l97-96-97-97c-11-11-11-30 0-41 12-12 30-12 41 0l118 117c11 11 11 30 0 41l-118 118z m-130 65c-16 5-32-3-37-18l-117-352c-6-15 3-32 18-37 16-5 32 3 37 18l117 352c6 15-3 32-18 37z" horiz-adv-x="1000" />

<glyph glyph-name="document" unicode="&#xe81b;" d="M897 590l-251 251c-5 6-13 9-20 9h-424c-59 0-108-48-108-108v-784c0-60 49-108 108-108h596c60 0 108 48 108 108v612c0 7-3 15-9 20z m-242 160l151-151h-102c-27 0-49 22-49 49z m143-841h-596c-27 0-49 22-49 49v784c0 27 22 49 49 49h394v-143c0-59 49-108 108-108h143v-582c0-27-22-49-49-49z m-423 502h-126c-16 0-29-13-29-30v-125c0-16 13-29 29-29h126c16 0 29 13 29 29v125c0 17-13 30-29 30z m-30-126h-67v67h67z m30-125h-126c-16 0-29-13-29-30v-125c0-16 13-30 29-30h126c16 0 29 14 29 30v125c0 17-13 30-29 30z m-30-126h-67v67h67z m126 347c0-16 13-29 29-29h126c16 0 29 13 29 29s-13 30-29 30h-126c-16 0-29-13-29-30z m280-96h-251c-16 0-29-13-29-29s13-29 29-29h251c16 0 29 13 29 29s-13 29-29 29z m-251-184h126c16 0 29 13 29 29s-13 30-29 30h-126c-16 0-29-13-29-30s13-29 29-29z m251-67h-251c-16 0-29-13-29-29s13-30 29-30h251c16 0 29 14 29 30s-13 29-29 29z m-502 601h157c16 0 29 13 29 29s-13 29-29 29h-157c-16 0-29-13-29-29s13-29 29-29z m0-126h251c16 0 29 13 29 29s-13 30-29 30h-251c-16 0-29-13-29-30s13-29 29-29z" horiz-adv-x="1000" />

<glyph glyph-name="packaging" unicode="&#xe81c;" d="M884 457c24 32 40 69 46 109l2 16c11 80-19 159-80 212l0 0c-5 4-9 7-14 11-5 4-11 7-17 11-4 2-8 4-11 7-3 1-4 2-7 3-87 43-191 28-262-38l-74-68-73 68c-73 67-181 81-268 35-88-46-138-142-124-241l3-16c4-28 13-55 27-80-10-18-17-37-22-56l-4-16c-14-60-4-123 28-175l209-349c20-32 59-47 95-37l391 113c58 17 108 57 138 110l8 14c17 29 27 60 30 92 0 1 0 1 0 1l4 7c49 86 39 193-25 267z m-13 264c25-40 35-87 28-134l-2-16c-8-52-35-99-77-131l-322-248c-18-14-43-14-61 0l-54 41 118 118c12-12 29-16 46-13 16 4 29 16 35 31l39 100c35 6 63 33 68 69l100 38c16 6 27 20 31 36 4 16-1 33-13 45z m-104-377c18 0 33-15 33-34s-15-33-33-33c-19 0-34 15-34 33 0 4 1 8 2 12 5 13 18 22 32 22z m-183-128l36 27c18-1 31-17 30-35-1-18-16-32-34-31-18 0-33 15-33 33 0 2 1 3 1 5 0 0 0 0 0 1z m-117-89c0-17-13-31-29-33-17-2-32 8-37 24-4 16 4 33 19 40 2 0 4 1 6 1 10-5 21-9 32-10 6-6 9-14 9-22z m-164 167l127 128 48-47-122-122-27 22z m14-52c-1-17-15-30-31-32s-32 11-35 27c-4 17 6 33 22 38z m326 345c19-20 19-52 0-71-20-20-52-20-71 0-20 19-20 51 0 71 19 19 51 19 71 0z m-14 44l34 90c2 6 7 10 12 11 6 1 12-1 16-5l92-92c4-4 6-10 5-15-2-6-5-11-11-13l-90-34c-7 29-29 51-58 59z m-43-160l-35-90c-2-5-6-9-12-10-5-1-11 0-15 4l-93 93c-4 4-5 10-4 15 1 6 5 10 10 12l90 35c7-29 30-52 59-59z m215 318c6-3 12-7 18-11 5-4 10-9 15-13 1-1 2-1 3-2 5-5 9-10 14-15l-67-67-47 47 62 62c1 0 1 0 2-1z m-685-11c77 56 184 50 255-15l85-78c6-6 16-6 23 0l84 78c55 51 133 67 204 42l-54-53c-12 11-29 16-45 12-16-4-30-15-36-31l-38-100c-36-5-63-33-69-68l-100-39c-15-6-27-19-31-35-3-17 2-34 13-46l-130-130-163 125c-41 32-69 79-76 131l-3 16c-10 74 21 147 81 191z m730-671l-8-14c-25-46-68-80-119-95l-390-113c-22-6-45 3-57 22l-210 349c-27 45-35 99-23 150l0 2c6-24 15-48 28-69l210-349c19-32 58-47 94-37l391 114c33 9 63 26 89 48-2-3-3-5-5-8z m34 100l-8-14c-26-46-69-80-119-94l-391-114c-22-6-45 3-57 23l-209 348c-15 25-24 52-28 81 8-9 17-17 26-24l150-115c-23-17-33-47-24-74 8-27 33-46 61-47 28-1 54 16 65 43l2-2 47-36c-29-20-37-59-19-90 18-30 56-41 88-25 31 16 45 54 31 86 8 3 16 7 23 12l35 27c8-29 34-48 64-48 30 0 56 20 64 49 8 29-4 59-30 75l50 38c2-33 28-60 62-62 33-2 63 21 69 53 7 33-12 66-44 76l52 40c8 6 15 12 22 19 4-6 9-12 13-18 39-63 41-143 5-207z m0 0" horiz-adv-x="1000" />

<glyph glyph-name="menu_arrow_top" unicode="&#xe81d;" d="M496 827c-6 0-11-2-16-6l-444-444c-8-9-8-23 0-32l22-21c8-8 22-8 31 0l370 371v-791c0-12 10-22 22-22h30c12 0 22 10 22 22v792l371-372c9-8 23-8 32 0l21 21c4 5 6 10 6 16s-2 11-6 16l-444 444c-4 4-10 6-16 6 0 0 0 0 0 0-1 0-1 0-1 0z" horiz-adv-x="1000" />

<glyph glyph-name="price" unicode="&#xe81e;" d="M872 607l-234 234c-6 6-13 9-21 9h-410c-48 0-88-39-88-88v-824c0-49 40-88 88-88h586c48 0 88 39 88 88v648c0 8-3 16-9 21z m-225 143l134-134h-105c-16 0-29 13-29 29z m146-841h-586c-16 0-29 13-29 29v824c0 16 13 29 29 29h381v-146c0-48 39-88 88-88h146v-619c0-16-13-29-29-29z m-117 527h-352c-16 0-29-13-29-29s13-30 29-30h352c16 0 29 14 29 30s-13 29-29 29z m0-117h-352c-16 0-29-13-29-29s13-30 29-30h352c16 0 29 13 29 30s-13 29-29 29z m0-117h-352c-16 0-29-14-29-30s13-29 29-29h352c16 0 29 13 29 29s-13 30-29 30z m-117-118h-235c-16 0-29-13-29-29s13-29 29-29h235c16 0 29 13 29 29s-13 29-29 29z" horiz-adv-x="1000" />

<glyph glyph-name="search" unicode="&#xe81f;" d="M988-79l-285 285c56 68 89 154 89 248 0 218-178 396-396 396s-396-178-396-396 178-396 396-396c94 0 181 34 249 89l284-285c8-8 19-12 29-12s22 4 30 12c16 16 16 43 0 59z m-592 221c-172 0-313 140-313 312s141 313 313 313 312-140 312-313-140-312-312-312z" horiz-adv-x="1000" />

<glyph glyph-name="shopping-bag" unicode="&#xe820;" d="M883 616h-119c-16 131-128 234-264 234s-248-103-264-234h-119c-21 0-39-18-39-39v-688c0-22 18-39 39-39h766c21 0 39 17 39 39v688c0 21-18 39-39 39z m-383 156c93 0 170-68 185-156h-370c15 88 92 156 185 156z m344-844h-688v610h78v-118c0-21 18-39 39-39s40 18 40 39v118h375v-118c0-21 17-39 39-39s39 18 39 39v118h78z" horiz-adv-x="1000" />

<glyph glyph-name="video" unicode="&#xe821;" d="M842 688c-90 91-211 140-339 140s-248-49-339-140-140-211-140-339 50-248 140-339 211-140 339-140 249 49 339 140 141 211 141 339-50 249-141 339z m-339-808c-258 0-469 210-469 469 0 259 211 469 469 469 259 0 470-210 470-469 0-259-211-469-470-469z m-107 297l304 170-304 175v-345z m10 327l274-157-274-153v310z" horiz-adv-x="1000" />

<glyph glyph-name="wave" unicode="&#xe822;" d="M992 338c-24 0-35 7-47 15-13 7-26 15-51 15-25 0-38-8-50-15-12-8-24-15-48-15-24 0-36 7-49 15-12 7-25 15-50 15-25 0-38-8-50-15-13-8-24-15-48-15-25 0-36 7-49 15-12 7-25 15-50 15s-38-8-50-15c-13-8-24-15-49-15-24 0-35 7-48 15-12 7-25 15-50 15-25 0-38-8-50-15-13-8-25-15-49-15s-36 7-48 15c-12 7-25 15-50 15-25 0-38-8-51-15-12-8-24-15-48-15v-4c25 0 38 8 50 15 13 8 25 15 49 15 24 0 36-7 48-15 12-7 25-15 50-15s38 8 51 15c12 8 24 15 48 15 24 0 36-7 48-15 12-7 25-15 50-15 26 0 38 8 51 15 12 8 24 15 48 15s36-7 48-15c13-7 25-15 51-15 25 0 37 8 50 15 12 8 24 15 48 15 24 0 36-7 48-15 13-7 25-15 51-15 25 0 38 8 50 15 12 8 24 15 48 15 24 0 36-7 48-15 13-7 25-15 50-15v4z" horiz-adv-x="1000" />

<glyph glyph-name="wave_bold" unicode="&#xe823;" d="M992 340c-23 0-34 7-46 14-13 8-26 16-52 16-25 0-38-8-51-16-12-7-24-14-47-14s-35 7-48 14c-12 8-25 16-51 16-26 0-39-8-51-16-12-7-24-14-47-14-24 0-35 7-48 14-12 8-25 16-51 16-26 0-39-8-51-16-13-7-24-14-48-14-23 0-35 7-47 14-12 8-25 16-51 16-26 0-39-8-51-16-13-7-24-14-48-14-23 0-35 7-47 14-13 8-26 16-51 16-26 0-39-8-52-16-12-7-23-14-47-14-1 0-2-1-2-2v-4c0-1 0-1 1-2s1 0 1 0c26 0 39 8 52 16 12 7 23 14 47 14 23 0 35-7 47-14 13-8 26-16 51-16 26 0 39 8 52 16 12 7 23 14 47 14 23 0 35-7 47-14 13-8 26-16 51-16 26 0 39 8 52 16 12 7 23 14 47 14 24 0 35-7 47-14 13-8 26-16 52-16 25 0 38 8 51 16 12 7 24 14 47 14s35-7 47-14c13-8 26-16 52-16 25 0 38 8 51 16 12 7 24 14 47 14s35-7 48-14c12-8 25-16 50-16 0 0 0 0 0 0 1 0 1 0 2 0 0 1 0 1 0 2v4c0 1-1 2-2 2z" horiz-adv-x="1000" />

<glyph glyph-name="cocoa" unicode="&#xe824;" d="M920 489c16 9 27 26 27 44 1 66-43 143-112 196-7 5-16 4-21-2-5-7-3-16 3-21 62-48 102-115 101-172 0-8-5-15-12-19-47-25-121-22-188 7 0 0-1 0-1 0-29 40-53 74-102 74-34 39-53 84-53 126l86-53 8-67c1-8 9-13 17-12 8 1 13 8 12 16l-5 44 44-27 8-67c1-8 7-13 15-13 8 0 15 8 14 17l-5 43 86-53c7-4 16-2 20 5 4 7 2 16-5 20l-35 22 22 8c8 3 12 11 9 19-3 7-11 11-19 9l-44-16-44 27 36 12c7 3 11 11 9 19-3 8-11 12-19 9l-58-21-44 27 36 13c8 3 12 11 9 19-3 7-11 11-19 9l-58-21-60 37c49 26 118 23 183-7 7-3 16 0 20 7 3 8 0 16-8 20-77 36-161 36-219 0-2-1-3-2-5-3-33 21-33 21-37 22-2 32-7 51-8 53-2 8-10 13-18 10-7-2-12-10-10-18 0 0 5-17 7-47l-32-20c-21 16-68 33-124 29-149-10-275-147-274-260 0-18 11-35 27-44 49-26 113-24 167-10-41-60-84-127-129-181-107-127-44-307 67-422 19-20 47-30 75-25 85 15 178 57 237 121 65-70 164-108 238-121 28-5 56 5 75 25 110 114 175 294 67 422-8 10-16 20-25 31-5 7-14 8-21 3-6-5-7-14-2-20 9-12 17-23 26-33 87-103 45-246-38-351 16 105-1 225-55 328-25 47-51 102-75 155-19 40-61 131-78 155 0 1 0 0 0 1 41 3 62-32 87-66 18-24 36-51 56-79 11-18 24-36 36-54 5-7 14-9 21-4s8 14 3 20c-12 18-24 36-36 54-10 15-20 29-29 42 28-7 55-11 81-11 34 0 66 6 92 20z m-407 263l21-13c0-2 0-3-1-5-3-47 14-99 48-144-3-1-7-2-10-4-39 45-57 115-60 129 1 13 2 26 2 37z m-14-99c10-25 24-54 44-79-20-7-25-5-46-11-6 2-14 4-22 5 0 0 0 0 0 0 0 0 0 0 0 0-2 0-4 1-7 1 14 29 24 58 31 84z m-33 86l18 11c-2-42-10-103-44-172-1 1-5 3-6 3 0 0 0 0 0 0 0 0 0 0 0 0-6 3-11 6-16 8 6 9 13 18 18 27 30 50 35 100 30 123z m-372-224c-7 4-12 11-12 19 0 31 12 67 35 101 76 115 220 156 306 112l-61-37-58 21c-8 2-16-2-19-9-2-8 1-16 9-19l36-13-44-27-58 21c-7 3-16-1-19-9-2-7 2-16 9-19l36-13-44-26-44 16c-8 2-16-2-19-9s1-16 9-19l22-8-35-22c-7-4-9-13-5-20 4-7 13-9 20-5l86 53-5-43c-1-9 6-17 15-17 7 0 13 5 14 13l8 67 44 27-5-44c-1-9 6-16 14-16 8 0 14 5 15 12l8 67 86 53c1-87-75-166-157-201-57-24-133-34-187-6z m84-587c-84 106-125 248-38 351 56 67 106 150 154 216 27 12 54 27 77 47-40-76-90-195-138-286-54-103-72-223-55-328z m63-49c-9 1-17 4-24 8-29 96-20 237 42 355 58 111 128 280 155 312 1 2 4 3 6 1 40-21 55-11 56-21 2-41-41-221-59-343-20-132-96-251-176-312z m56 10c75 76 132 183 149 298 17 117 59 292 59 341 29-18 31-45 32-79 3-85-9-200-3-298 10-136-108-226-237-262z m219 105c29 38 45 80 48 126 25-91 75-171 134-230-62 17-133 51-182 104z m144 405c25-54 51-109 76-157 62-117 71-259 42-355-8-4-16-7-24-8-80 60-157 179-176 312-4 26-9 55-15 90 6 183 11 225-27 260 13 3 26 8 38 14 0 0 0 0 0 0 0 0 0 0 0 0 1 0 1 0 1 0 0 0 0 0 0 1 2 1 4 0 6-2 16-20 52-98 79-155z" horiz-adv-x="1000" />

<glyph glyph-name="location" unicode="&#xe825;" d="M500 850c-221 0-401-180-401-401 0-25 2-50 7-75 0-2 1-6 3-13 6-28 15-54 27-80 43-101 138-257 346-425 5-4 12-6 18-6s13 2 18 6c208 168 303 324 346 425 12 26 21 52 27 80 2 7 3 11 3 13 5 25 7 50 7 75 0 221-180 401-401 401z m338-466c0-1 0-1 0-1-1-2-1-5-2-9 0-1 0-1 0-1-6-23-13-46-24-68 0 0 0-1 0-1-39-93-125-235-312-389-187 154-273 296-312 389-1 0-1 1-1 1-10 22-18 45-23 68 0 0 0 0 0 1-1 4-2 7-2 9 0 0 0 0 0 1-4 22-6 43-6 65 0 190 154 345 344 345s344-155 344-345c0-22-2-44-6-65z m-338 315c-140 0-255-114-255-254s115-255 255-255 254 115 254 255-114 254-254 254z m0-452c-109 0-198 89-198 198s89 198 198 198 198-89 198-198-89-198-198-198z" horiz-adv-x="1000" />

<glyph glyph-name="login" unicode="&#xe826;" d="M257-72h-138c-17 0-27 9-32 15-7 10-10 22-8 34 41 195 213 337 411 342 3 0 7 0 10 0 3 0 7 0 10 0 49-1 96-10 141-27 20-8 43 2 50 23 8 20-2 42-22 50-7 2-13 5-20 7 65 48 107 126 107 212 0 147-119 266-266 266-146 0-266-119-266-266 0-87 42-164 107-212-59-20-115-50-164-90-89-74-151-176-174-289-8-35 1-71 24-99 22-28 56-44 92-44h138c21 0 39 17 39 39 0 22-18 39-39 39z m56 656c0 104 84 188 187 188s188-84 188-188c0-100-80-182-179-187-3 0-6 0-9 0-3 0-6 0-9 0-99 5-178 87-178 187z m657-407c-17 37-54 62-96 62h-122c0 0 0 0 0 0-44 0-82-26-98-66-2-6-4-12-7-20h-256c-10 0-20-4-28-12l-67-69c-15-15-14-40 0-55l69-69c7-8 17-12 28-12h127c21 0 39 17 39 39 0 22-18 39-39 39h-111l-30 31 29 30h268c18 0 34 12 38 29 4 13 7 26 13 41 4 9 14 16 25 16 0 0 0 0 0 0h122c11 0 21-6 25-16 10-23 23-60 23-99 0-41-12-78-23-102-4-10-14-16-25-16 0 0 0 0 0 0h-123c-11 0-21 7-25 17-5 11-9 24-12 39-5 21-26 34-47 29-21-5-34-26-29-47 4-19 10-36 16-50 16-40 54-66 97-66h123c0 0 0 0 1 0 41 0 79 25 96 63 13 31 29 79 29 133 0 53-16 101-30 131z" horiz-adv-x="1000" />

<glyph glyph-name="mail" unicode="&#xe827;" d="M878 731h-756c-67 0-122-55-122-123v-516c0-68 55-123 122-123h756c67 0 122 55 122 123v516c0 68-55 123-122 123z m66-639c0-37-29-67-66-67h-756c-36 0-66 30-66 67v516c0 37 30 66 66 66h756c36 0 66-29 66-66v-516h0z m-313 264l244 220c12 10 13 28 2 39-10 12-28 13-39 2l-337-302-66 58c0 1-1 1-1 1-1 2-3 3-4 4l-268 240c-12 10-29 9-39-3-11-11-10-29 2-39l247-221-246-231c-11-11-12-28-1-40 5-5 13-9 20-9 7 0 14 3 19 8l250 234 68-61c6-4 12-7 19-7 6 0 13 3 18 8l70 62 249-236c5-5 12-8 19-8 8 0 15 3 20 9 11 11 10 29-1 39l-245 233z" horiz-adv-x="1000" />

<glyph glyph-name="menu_arrow" unicode="&#xe828;" d="M969 355c0 6-2 12-6 16l-444 444c-9 8-23 8-31 0l-22-21c-8-9-8-23 0-32l371-370h-791c-12 0-22-10-22-22v-30c0-12 10-22 22-22h792l-372-371c-8-9-8-23 0-32l22-21c4-4 9-6 15-6 6 0 12 2 16 6l444 444c4 5 6 10 6 16 0 0 0 0 0 1 0 0 0 0 0 0z" horiz-adv-x="1000" />

<glyph glyph-name="organic" unicode="&#xe829;" d="M493-150c-73 4-147 28-214 70-66 41-126 101-170 176-5 7-2 15 5 20 7 4 15 2 20-5 42-71 98-127 161-167 48-30 99-50 151-59-27 21-52 46-74 73l-25 6c-7 2-12 10-10 18 1 5 5 8 9 10-15 21-29 44-42 68-2 6-5 11-8 17l-54 15c-8 2-12 10-10 18s10 12 18 10l31-8c-10 24-18 49-25 75l-82 22c-7 2-12 10-10 18 2 8 10 12 18 10l67-18c-5 23-8 46-10 70l-95 27c-8 2-12 10-10 18 2 8 10 12 18 10l64-17-68 119c-4 7-2 16 5 20 7 4 16 2 20-5l63-109c0 56 7 110 20 160-24 12-50 22-75 29-26 7-52 11-78 12-28-54-42-116-43-181 0-67 14-137 44-204 3-7 0-16-8-19-7-4-16 0-19 7-32 71-47 145-46 216 1 73 18 143 50 203 3 5 9 8 14 8 32-1 63-6 93-14 26-7 51-16 76-28 11 35 24 68 40 99 46 88 111 160 189 208 5 3 11 3 15 0 24-15 46-31 67-50 21-19 41-39 59-62 5-6 4-15-2-20-7-6-16-5-21 2-17 21-36 40-56 58-17 16-36 30-55 42-70-45-128-111-170-192-41-80-65-175-65-276 0-96 21-191 65-276 37-72 90-136 156-182v87l-82 82c-6 6-6 15 0 21 5 6 15 6 20 0l62-61v120l-115 115c-6 6-6 15 0 21 6 5 15 5 21 0l94-95v121l-115 115c-6 5-6 15 0 20 6 6 15 6 21 0l94-94v121l-82 82c-6 5-6 15 0 20 5 6 15 6 20 0l62-61v171c0 8 6 15 14 15 8 0 15-7 15-15v-171l61 61c6 6 15 6 21 0 6-5 6-15 0-20l-82-82v-121l94 94c6 6 15 6 21 0 6-5 6-15 0-20l-115-115v-121l94 95c6 5 15 5 21 0 6-6 6-15 0-21l-115-115v-120l61 61c6 6 15 6 21 0 6-6 6-15 0-21l-82-82v-87c66 46 119 110 155 182 44 85 66 180 66 276 0 111-29 221-88 315-4 7-2 16 5 20 7 4 16 2 20-4 27-43 48-90 64-140 24 12 50 21 75 28 31 8 63 13 94 14 6 0 11-3 13-8 14-24 24-50 32-78 8-27 14-55 17-85 0-8-6-15-14-15s-15 5-15 13c-3 27-8 54-16 79-6 22-15 44-25 64-26-1-52-5-78-12-26-7-51-17-75-29 13-50 20-104 20-160l63 109c4 7 13 9 20 5 7-4 9-13 5-20l-69-119 65 17c8 2 16-2 18-10s-3-16-11-18l-92-25c-2-3-10-61-12-72l67 18c8 2 16-2 18-10 2-8-3-16-11-18l-82-22c-6-26-15-51-24-75l31 8c8 2 16-3 18-10 2-8-3-16-10-18l-54-15c-3-6-6-11-9-17-12-24-26-47-41-68 4-2 7-5 9-10 2-8-3-16-11-18l-24-6c-23-27-48-52-75-73 54 9 107 30 156 62 100 65 175 168 210 283 11 38 18 77 20 115 0 8 7 15 15 14 8 0 14-7 14-15-2-41-9-82-21-123-36-121-116-230-223-299-67-43-141-68-216-72-6 0-10 0-16 0z" horiz-adv-x="1000" />
</font>
</defs>
</svg>
